<?xml version="1.0" standalone="no"?>
<!DOCTYPE svg PUBLIC "-//W3C//DTD SVG 20010904//EN"
 "http://www.w3.org/TR/2001/REC-SVG-20010904/DTD/svg10.dtd">
<svg version="1.0" xmlns="http://www.w3.org/2000/svg"
 width="1000.000000pt" height="1000.000000pt" viewBox="0 0 1000.000000 1000.000000"
 preserveAspectRatio="xMidYMid meet">
<metadata>
Created by potrace 1.11, written by Peter Selinger 2001-2013
</metadata>
<g transform="translate(0.000000,1000.000000) scale(0.100000,-0.100000)"
fill="#000000" stroke="none">
<path d="M4828 9635 c-2 -1 -57 -5 -123 -9 -66 -3 -131 -8 -145 -10 -14 -3
-56 -7 -93 -11 -37 -3 -78 -8 -90 -11 -12 -2 -39 -6 -62 -9 -22 -3 -51 -8 -65
-10 -14 -3 -38 -7 -55 -10 -16 -3 -41 -7 -55 -10 -14 -2 -50 -10 -80 -16 -116
-23 -371 -92 -515 -140 -485 -162 -911 -387 -1325 -697 -91 -69 -167 -127
-170 -131 -3 -3 -39 -35 -80 -71 -230 -198 -474 -458 -648 -689 -48 -64 -89
-118 -92 -121 -17 -17 -158 -234 -214 -330 -37 -63 -72 -122 -77 -130 -11 -17
-168 -337 -193 -392 -114 -253 -262 -733 -301 -973 -1 -11 -8 -49 -14 -85 -17
-98 -19 -111 -26 -165 -3 -27 -8 -63 -11 -80 -33 -249 -39 -815 -9 -1020 2
-16 6 -55 10 -85 6 -61 8 -74 30 -210 132 -820 495 -1605 1040 -2250 91 -109
80 -96 206 -226 610 -627 1370 -1070 2194 -1278 84 -21 174 -41 280 -62 94
-19 226 -39 326 -49 30 -4 68 -8 84 -10 182 -26 726 -25 930 0 17 2 57 7 90
10 33 3 71 8 85 10 14 2 45 7 70 10 25 4 90 15 145 26 55 11 114 22 130 25 17
3 98 23 181 44 775 200 1499 605 2064 1155 115 112 196 198 338 359 116 131
340 450 451 641 28 50 56 97 61 105 6 8 50 96 99 195 83 169 165 363 226 535
58 164 147 502 170 640 3 19 12 71 20 115 18 103 23 136 30 215 4 36 8 75 10
88 25 155 25 769 1 922 -2 14 -7 54 -11 90 -11 110 -22 183 -51 335 -134 720
-465 1434 -937 2024 -183 230 -359 411 -638 657 -54 47 -274 214 -379 286
-104 72 -380 240 -380 232 0 -3 -12 3 -27 14 -16 11 -93 51 -173 90 -212 102
-364 164 -584 237 -177 59 -355 105 -581 151 -46 9 -194 33 -245 39 -30 4 -62
9 -71 10 -8 2 -55 6 -105 10 -49 4 -98 9 -109 12 -22 5 -532 13 -537 8z m260
-917 c33 -68 164 -332 290 -588 288 -585 542 -1098 830 -1680 123 -250 298
-603 387 -785 89 -181 256 -519 370 -750 600 -1214 685 -1387 685 -1397 0 -12
-222 -699 -243 -753 -6 -16 -12 -32 -12 -35 -1 -6 -282 -860 -323 -983 -25
-73 -29 -78 -52 -74 -23 4 -115 36 -495 172 -71 25 -186 66 -255 90 -69 24
-190 66 -270 95 -220 78 -321 113 -485 170 -82 29 -151 54 -152 55 -3 1 -8 85
-18 285 -6 123 -12 234 -20 395 -3 55 -7 141 -10 190 -2 50 -7 135 -10 190 -3
55 -8 143 -10 195 -3 52 -7 142 -10 200 -6 116 -11 213 -20 395 -3 66 -8 156
-10 200 -3 44 -7 130 -10 190 -3 61 -7 146 -10 190 -3 44 -7 134 -10 200 -3
66 -7 152 -10 190 -3 39 -7 124 -10 191 -3 67 -7 150 -10 185 -2 35 -6 125
-10 199 -3 74 -8 167 -10 205 -3 39 -7 126 -10 195 -3 69 -8 154 -10 190 -2
36 -6 121 -10 190 -3 69 -8 157 -10 195 -2 39 -7 129 -10 200 -3 72 -8 159
-10 195 -2 36 -6 128 -10 205 -3 77 -8 167 -11 200 -2 33 -6 112 -9 175 -2 63
-7 162 -10 220 -4 58 -8 139 -10 180 -2 41 -6 125 -10 185 -3 61 -8 146 -10
190 -2 44 -7 145 -11 225 -4 80 -7 160 -7 178 0 17 -3 32 -7 32 -4 0 -8 -33
-10 -72 -3 -100 -13 -310 -25 -518 -2 -47 -7 -139 -10 -205 -3 -66 -8 -154
-10 -195 -3 -41 -7 -127 -10 -190 -7 -134 -12 -234 -20 -382 -3 -59 -8 -149
-10 -200 -2 -51 -6 -138 -9 -193 -11 -198 -16 -292 -21 -405 -3 -63 -8 -152
-10 -198 -3 -46 -8 -133 -11 -195 -10 -227 -13 -274 -19 -382 -13 -240 -15
-294 -20 -395 -3 -58 -7 -141 -10 -185 -6 -106 -16 -307 -30 -600 -3 -60 -7
-146 -10 -190 -3 -44 -7 -132 -10 -195 -11 -231 -13 -277 -19 -375 -3 -55 -8
-149 -11 -210 -3 -60 -8 -146 -10 -190 -3 -44 -7 -129 -10 -190 -3 -60 -7
-150 -10 -200 -3 -49 -7 -137 -10 -195 -2 -58 -7 -145 -10 -195 -2 -49 -7
-137 -10 -194 -3 -58 -7 -106 -8 -107 -1 -1 -69 -25 -152 -54 -82 -29 -211
-74 -285 -100 -74 -26 -218 -77 -320 -113 -102 -36 -268 -95 -370 -130 -393
-139 -535 -188 -545 -190 -11 -2 -12 0 -530 1578 -46 143 -85 266 -85 273 0 8
18 48 39 90 22 43 121 244 222 447 180 368 382 775 769 1560 111 226 282 572
380 770 98 198 266 540 375 760 109 220 283 573 386 785 104 212 194 393 200
403 14 26 34 65 150 303 57 117 107 210 110 208 3 -1 33 -58 67 -126z"/>
</g>
</svg>
